<svg width="18" height="24" viewBox="0 0 18 24" fill="none" xmlns="http://www.w3.org/2000/svg">
<path d="M2.44977 0H3.28122C3.51008 0 3.72956 0.0923887 3.89139 0.256842C4.48354 0.858609 4.56512 1.80555 4.08489 2.50274L3.93532 2.71988C3.1659 3.8369 3.07896 5.2984 3.71035 6.50149L6.03369 10.9285C7.10047 12.9612 6.89119 15.4414 5.49945 17.2598L3.72689 19.5758C3.56265 19.7904 3.22708 19.7168 3.16465 19.4524L0.245153 7.09025C-0.242701 5.02451 0.00239574 2.85008 0.937273 0.949957C1.22372 0.367761 1.80926 0 2.44977 0Z" fill="white"/>
<path d="M9.8576 18.1622H15.4469C16.8569 18.1622 18 19.3238 18 20.7568V21.4054C18 22.8384 16.8569 24 15.4469 24H8.36162C7.17663 24 6.04019 23.5216 5.20228 22.6701L4.49057 21.9468C4.21167 21.6634 4.24996 21.1933 4.57091 20.9603L7.26064 19.0079C8.01841 18.4579 8.92637 18.1622 9.8576 18.1622Z" fill="white"/>
</svg>
