<svg width="17" height="20" viewBox="0 0 17 20" fill="none" xmlns="http://www.w3.org/2000/svg">
<path d="M15.1692 11.6002L13.7308 8.66698C13.6073 8.46217 13.4341 8.29325 13.2279 8.17649C13.0218 8.05972 12.7897 7.99906 12.5538 8.00033H4.44615C4.21035 7.99906 3.97819 8.05972 3.77205 8.17649C3.56592 8.29325 3.39275 8.46217 3.26923 8.66698L1.83077 11.6002L0.209231 13.1362C0.143173 13.1987 0.0904886 13.2744 0.0544834 13.3586C0.0184783 13.4428 -7.07554e-05 13.5337 2.02817e-07 13.6255V19.3334C2.02817e-07 19.5102 0.0688873 19.6797 0.191507 19.8047C0.314127 19.9298 0.480436 20 0.653846 20H3.26923C3.53077 20 3.92308 19.7333 3.92308 19.4667V18.6667H13.0769V19.3334C13.0769 19.6 13.3385 20 13.6 20H16.3462C16.5196 20 16.6859 19.9298 16.8085 19.8047C16.9311 19.6797 17 19.5102 17 19.3334V13.6255C17.0001 13.5337 16.9815 13.4428 16.9455 13.3586C16.9095 13.2744 16.8568 13.1987 16.7908 13.1362L15.1692 11.6002ZM4.57692 9.33363H12.4231L13.7308 12.0002H3.26923L4.57692 9.33363ZM5.23077 15.4668C5.23077 15.7335 4.83846 16.0001 4.57692 16.0001H1.83077C1.56923 16.0001 1.30769 15.6001 1.30769 15.3335V13.8668C1.43846 13.4668 1.7 13.2002 2.09231 13.3335L4.70769 13.8668C4.96923 13.8668 5.23077 14.2668 5.23077 14.5335V15.4668ZM15.6923 15.3335C15.6923 15.6001 15.4308 16.0001 15.1692 16.0001H12.4231C12.1615 16.0001 11.7692 15.7335 11.7692 15.4668V14.5335C11.7692 14.2668 12.0308 13.8668 12.2923 13.8668L14.9077 13.3335C15.3 13.2002 15.5615 13.4668 15.6923 13.8668V15.3335ZM17 2.66715V4.00044C16.9969 4.35701 16.8551 4.69773 16.6057 4.94774C16.3563 5.19774 16.0198 5.33658 15.6701 5.33374H5.68585C5.33547 5.8008 4.87223 6.16718 4.34141 6.39708C3.81059 6.62697 3.23035 6.71251 2.6574 6.64534C2.08445 6.57816 1.53839 6.36057 1.07261 6.01382C0.606826 5.66708 0.237249 5.20305 2.02817e-07 4.66709H3.26923V2.0005H2.02817e-07C0.237249 1.46454 0.606826 1.00051 1.07261 0.653766C1.53839 0.307023 2.08445 0.0894286 2.6574 0.022252C3.23035 -0.0449247 3.81059 0.0406147 4.34141 0.270509C4.87223 0.500404 5.33547 0.866788 5.68585 1.33385H15.6701C16.0198 1.33101 16.3563 1.46985 16.6057 1.71985C16.8551 1.96986 16.9969 2.31058 17 2.66715Z" fill="white"/>
</svg>
